<svg width="21" height="21" fill="none" xmlns="http://www.w3.org/2000/svg"><path d="M8.944 4.084a6.93 6.93 0 011.06-.08c3.18 0 6.17 2.29 7.91 6a15.23 15.23 0 01-.9 1.64 1 1 0 00.05 1.152 1 1 0 001.65-.102 15.78 15.78 0 001.21-2.3 1.001 1.001 0 000-.79c-2.02-4.69-5.82-7.6-9.92-7.6a7.77 7.77 0 00-1.4.12 1.014 1.014 0 00.34 2v-.04zM1.714.294a1.004 1.004 0 00-1.42 1.42l3.1 3.09a14.62 14.62 0 00-3.31 4.8 1 1 0 000 .8c2.02 4.69 5.82 7.6 9.92 7.6a9.26 9.26 0 005.05-1.54l3.24 3.25a1.002 1.002 0 001.639-.325 1 1 0 00-.219-1.095l-18-18zm6.36 9.19l2.45 2.45a2 2 0 01-2.45-2.45zm1.93 6.52c-3.18 0-6.17-2.29-7.9-6a12.09 12.09 0 012.7-3.79l1.77 1.79a4 4 0 005.43 5.43l1.59 1.57a7.24 7.24 0 01-3.59 1z" fill="#8F8F8F"/></svg>