<svg width="18" height="18" fill="none" xmlns="http://www.w3.org/2000/svg"><path d="M8.543.5C3.857.5.043 4.313.043 9c0 4.687 3.814 8.5 8.5 8.5 4.687 0 8.5-3.813 8.5-8.5 0-4.687-3.813-8.5-8.5-8.5zm6.019 4.147a15.99 15.99 0 01-2.824.84 12.016 12.016 0 00-1.956-3.813 7.442 7.442 0 014.78 2.973zm-3.613 6.67a17.713 17.713 0 00-4.812 0 11.035 11.035 0 01-.002-4.626c.792.109 1.594.184 2.408.184.815 0 1.616-.075 2.408-.184a11.035 11.035 0 01-.002 4.625zm-.275-5.665a16.632 16.632 0 01-4.262 0 10.958 10.958 0 012.131-3.809 10.956 10.956 0 012.13 3.81zM7.302 1.674a12.014 12.014 0 00-1.955 3.813 16.005 16.005 0 01-2.822-.84 7.437 7.437 0 014.777-2.973zM1.106 9a7.4 7.4 0 01.847-3.434c1.016.418 2.058.746 3.13.962a12.1 12.1 0 00.001 4.953c-1.071.213-2.118.54-3.131.956A7.407 7.407 0 011.106 9zm1.42 4.353a16 16 0 012.821-.84 12.016 12.016 0 001.957 3.813 7.437 7.437 0 01-4.779-2.973zm3.887-1.005a16.629 16.629 0 014.26 0 10.973 10.973 0 01-2.13 3.809 10.955 10.955 0 01-2.13-3.81zm3.37 3.978a12.015 12.015 0 001.955-3.813c.965.189 1.908.478 2.824.84a7.442 7.442 0 01-4.78 2.973zm2.219-4.847c.342-1.633.343-3.32.001-4.952a17.027 17.027 0 003.131-.962 7.398 7.398 0 010 6.87 17.126 17.126 0 00-3.132-.956z" fill="#000"/></svg>