<svg width="135" height="40" viewBox="0 0 135 40" fill="none" xmlns="http://www.w3.org/2000/svg">
<g clip-path="url(#clip0_2801_12659)">
<path d="M133.496 35.268C133.496 37.384 131.796 39.098 129.693 39.098H5.23436C3.13242 39.098 1.42627 37.384 1.42627 35.268V4.72501C1.42627 2.61001 3.13242 0.890015 5.23436 0.890015H129.692C131.796 0.890015 133.495 2.61001 133.495 4.72501L133.496 35.268Z" fill="white"/>
<path d="M129.693 39.989H5.23438C2.64837 39.989 0.543457 37.872 0.543457 35.268V4.726C0.543457 2.12 2.64837 0 5.23438 0H129.692C132.275 0 134.383 2.12 134.383 4.726V35.268C134.385 37.872 132.277 39.989 129.693 39.989Z" fill="#A6A6A6"/>
<path d="M133.496 35.268C133.496 37.384 131.796 39.098 129.693 39.098H5.23436C3.13242 39.098 1.42627 37.384 1.42627 35.268V4.72501C1.42627 2.61001 3.13242 0.890015 5.23436 0.890015H129.692C131.796 0.890015 133.495 2.61001 133.495 4.72501L133.496 35.268Z" fill="black"/>
<path d="M30.4289 19.784C30.4002 16.561 33.0467 14.993 33.1677 14.92C31.6689 12.717 29.3457 12.416 28.5294 12.392C26.5782 12.185 24.6856 13.569 23.6916 13.569C22.6779 13.569 21.1473 12.412 19.4977 12.446C17.3749 12.479 15.389 13.718 14.2999 15.642C12.0521 19.565 13.7285 25.33 15.882 28.501C16.9593 30.055 18.2181 31.788 19.8657 31.727C21.4776 31.661 22.0797 30.692 24.0249 30.692C25.9523 30.692 26.5177 31.727 28.198 31.688C29.928 31.661 31.0172 30.128 32.0567 28.561C33.3016 26.782 33.8016 25.028 33.8214 24.938C33.7817 24.924 30.4627 23.646 30.4289 19.784Z" fill="white"/>
<path d="M27.2547 10.306C28.1217 9.21304 28.7148 7.72604 28.5502 6.21704C27.2954 6.27304 25.7261 7.09204 24.8224 8.16104C24.0229 9.10304 23.3087 10.647 23.4932 12.099C24.9028 12.205 26.35 11.382 27.2547 10.306Z" fill="white"/>
<path d="M129.693 0H63.0293L89.1404 39.989H129.693C132.276 39.989 134.384 37.872 134.384 35.265V4.726C134.385 2.12 132.277 0 129.693 0Z" fill="url(#paint0_linear_2801_12659)"/>
<path d="M53.7764 31.504H51.5237L50.2897 27.595H46.0005L44.825 31.504H42.6318L46.8823 18.196H49.507L53.7764 31.504ZM49.9177 25.955L48.8018 22.48C48.6837 22.125 48.4615 21.289 48.1362 19.973H48.0965C47.9655 20.539 47.7562 21.375 47.4696 22.48L46.3725 25.955H49.9177V25.955Z" fill="white"/>
<path d="M64.6859 26.588C64.6859 28.22 64.2464 29.51 63.3666 30.457C62.579 31.3 61.5999 31.721 60.4324 31.721C59.1716 31.721 58.265 31.268 57.7144 30.36V35.395H55.5996V25.062C55.5996 24.037 55.5728 22.986 55.5212 21.908H57.3811L57.4992 23.429H57.5389C58.2441 22.283 59.3145 21.71 60.7508 21.71C61.8737 21.71 62.8111 22.157 63.561 23.052C64.3099 23.949 64.6859 25.127 64.6859 26.588ZM62.5313 26.666C62.5313 25.732 62.323 24.962 61.9044 24.355C61.4471 23.724 60.8331 23.408 60.0634 23.408C59.5416 23.408 59.0675 23.584 58.6439 23.931C58.2193 24.281 57.9416 24.738 57.8117 25.304C57.7462 25.568 57.7134 25.783 57.7134 25.953V27.554C57.7134 28.251 57.9257 28.84 58.3503 29.322C58.7748 29.802 59.3264 30.043 60.0049 30.043C60.8014 30.043 61.4214 29.732 61.8648 29.115C62.3092 28.496 62.5313 27.68 62.5313 26.666Z" fill="white"/>
<path d="M75.6339 26.588C75.6339 28.22 75.1944 29.51 74.3146 30.457C73.526 31.3 72.5479 31.721 71.3794 31.721C70.1186 31.721 69.212 31.268 68.6615 30.36V35.395H66.5466V25.062C66.5466 24.037 66.5198 22.986 66.4683 21.908H68.3282L68.4462 23.429H68.4859C69.1902 22.283 70.2605 21.71 71.6978 21.71C72.8197 21.71 73.7571 22.157 74.509 23.052C75.2569 23.949 75.6339 25.127 75.6339 26.588ZM73.4784 26.666C73.4784 25.732 73.2691 24.962 72.8505 24.355C72.3932 23.724 71.7811 23.408 71.0114 23.408C70.4896 23.408 70.0155 23.584 69.5899 23.931C69.1654 24.281 68.8886 24.738 68.7587 25.304C68.6942 25.568 68.6595 25.783 68.6595 25.953V27.554C68.6595 28.251 68.8727 28.84 69.2953 29.322C69.7199 29.801 70.2714 30.043 70.9519 30.043C71.7494 30.043 72.3694 29.732 72.8118 29.115C73.2562 28.496 73.4784 27.68 73.4784 26.666Z" fill="white"/>
<path d="M87.8746 27.771C87.8746 28.904 87.4817 29.825 86.7011 30.536C85.8421 31.312 84.6428 31.701 83.1053 31.701C81.6848 31.701 80.546 31.425 79.687 30.872L80.176 29.095C81.1035 29.649 82.1222 29.925 83.2312 29.925C84.0288 29.925 84.6487 29.743 85.0911 29.382C85.5345 29.02 85.7587 28.536 85.7587 27.932C85.7587 27.391 85.5732 26.938 85.2092 26.569C84.8432 26.201 84.2381 25.858 83.388 25.543C81.0767 24.674 79.9201 23.403 79.9201 21.731C79.9201 20.639 80.3288 19.745 81.1442 19.046C81.9596 18.348 83.0408 17.999 84.3859 17.999C85.5871 17.999 86.588 18.21 87.3825 18.631L86.8519 20.369C86.1039 19.961 85.2598 19.757 84.3154 19.757C83.5695 19.757 82.9843 19.942 82.5656 20.31C82.2135 20.639 82.035 21.04 82.035 21.516C82.035 22.041 82.2383 22.477 82.643 22.819C82.9942 23.134 83.635 23.477 84.5614 23.845C85.6982 24.307 86.5334 24.845 87.0681 25.463C87.6067 26.081 87.8746 26.852 87.8746 27.771Z" fill="white"/>
<path d="M94.8848 23.508H92.5538V28.167C92.5538 29.352 92.9644 29.943 93.7877 29.943C94.1657 29.943 94.4791 29.911 94.7271 29.844L94.7856 31.463C94.369 31.62 93.8205 31.699 93.141 31.699C92.3058 31.699 91.6531 31.442 91.1819 30.928C90.7127 30.414 90.4766 29.553 90.4766 28.341V23.504H89.0879V21.904H90.4766V20.147L92.5538 19.515V21.904H94.8848V23.508Z" fill="white"/>
<path d="M105.381 26.627C105.381 28.102 104.963 29.313 104.128 30.26C103.254 31.235 102.091 31.721 100.642 31.721C99.2433 31.721 98.1313 31.254 97.302 30.321C96.4727 29.386 96.0581 28.208 96.0581 26.787C96.0581 25.3 96.4866 24.082 97.3407 23.135C98.1967 22.187 99.3494 21.713 100.799 21.713C102.195 21.713 103.317 22.181 104.166 23.115C104.978 24.021 105.381 25.191 105.381 26.627ZM103.189 26.676C103.189 25.797 103.001 25.043 102.623 24.412C102.179 23.65 101.545 23.269 100.722 23.269C99.8751 23.269 99.2254 23.65 98.783 24.412C98.4041 25.043 98.2156 25.81 98.2156 26.716C98.2156 27.596 98.4041 28.352 98.783 28.981C99.2403 29.743 99.8781 30.124 100.704 30.124C101.513 30.124 102.147 29.735 102.605 28.962C102.994 28.316 103.189 27.557 103.189 26.676Z" fill="white"/>
<path d="M112.259 23.783C112.049 23.744 111.825 23.724 111.592 23.724C110.848 23.724 110.273 24.006 109.868 24.574C109.517 25.074 109.34 25.706 109.34 26.469V31.504H107.226V24.93C107.226 23.825 107.205 22.817 107.164 21.909H109.006L109.083 23.745H109.142C109.366 23.114 109.717 22.605 110.199 22.224C110.671 21.881 111.179 21.71 111.728 21.71C111.923 21.71 112.1 21.724 112.257 21.749L112.259 23.783Z" fill="white"/>
<path d="M121.717 26.252C121.717 26.634 121.692 26.956 121.64 27.219H115.295C115.319 28.167 115.626 28.893 116.216 29.393C116.75 29.839 117.442 30.063 118.291 30.063C119.23 30.063 120.087 29.913 120.858 29.61L121.189 31.089C120.289 31.485 119.225 31.682 117.998 31.682C116.522 31.682 115.363 31.244 114.52 30.37C113.679 29.495 113.258 28.319 113.258 26.846C113.258 25.4 113.649 24.195 114.434 23.234C115.255 22.208 116.365 21.695 117.762 21.695C119.134 21.695 120.172 22.208 120.878 23.234C121.436 24.047 121.717 25.055 121.717 26.252ZM119.7 25.699C119.715 25.066 119.576 24.521 119.29 24.06C118.924 23.466 118.36 23.17 117.605 23.17C116.914 23.17 116.35 23.459 115.922 24.039C115.57 24.5 115.36 25.054 115.296 25.697L119.7 25.699Z" fill="white"/>
<path d="M48.898 13.433H47.79L47.1839 11.512H45.076L44.4977 13.433H43.4194L45.5085 6.892H46.798L48.898 13.433ZM47.0014 10.706L46.4528 8.998C46.3953 8.823 46.2891 8.416 46.1255 7.766H46.1056C46.0382 8.047 45.942 8.455 45.7971 8.998L45.2585 10.706H47.0014Z" fill="white"/>
<path d="M54.1215 8.71698L52.3499 13.433H51.3391L49.625 8.71698H50.7419L51.5414 11.211C51.6763 11.628 51.7914 12.026 51.8777 12.404H51.9065C51.9838 12.065 52.0989 11.667 52.2427 11.211L53.0323 8.71698H54.1215Z" fill="white"/>
<path d="M57.893 13.433L57.8156 12.89H57.7869C57.4694 13.327 57.0072 13.54 56.42 13.54C55.5828 13.54 54.9856 12.948 54.9856 12.152C54.9856 10.988 55.9865 10.386 57.7194 10.386V10.299C57.7194 9.67803 57.3921 9.36703 56.7473 9.36703C56.2851 9.36703 55.8803 9.48403 55.5252 9.71703L55.3139 9.02803C55.7474 8.75603 56.286 8.62003 56.9219 8.62003C58.144 8.62003 58.761 9.27003 58.761 10.571V12.308C58.761 12.784 58.7808 13.153 58.8284 13.434L57.893 13.433ZM57.7482 11.084C56.5926 11.084 56.0152 11.366 56.0152 12.035C56.0152 12.53 56.3138 12.772 56.7275 12.772C57.2572 12.772 57.7482 12.365 57.7482 11.812V11.084Z" fill="white"/>
<path d="M61.0762 7.94002C60.73 7.94002 60.4602 7.66802 60.4602 7.30902C60.4602 6.95002 60.7389 6.68802 61.096 6.68802C61.4522 6.68802 61.7408 6.95002 61.7309 7.30902C61.7309 7.68802 61.4621 7.94002 61.0762 7.94002ZM61.6158 13.433H60.5763V8.71702H61.6158V13.433V13.433Z" fill="white"/>
<path d="M64.5022 13.433H63.4626V6.55301H64.5022V13.433Z" fill="white"/>
<path d="M68.9203 13.433L68.843 12.89H68.8142C68.4968 13.327 68.0345 13.54 67.4473 13.54C66.6101 13.54 66.0129 12.948 66.0129 12.152C66.0129 10.988 67.0138 10.386 68.7467 10.386V10.299C68.7467 9.67802 68.4194 9.36702 67.7746 9.36702C67.3124 9.36702 66.9077 9.48402 66.5526 9.71702L66.3403 9.02702C66.7738 8.75502 67.3124 8.61902 67.9482 8.61902C69.1703 8.61902 69.7873 9.26902 69.7873 10.57V12.307C69.7873 12.783 69.8081 13.152 69.8538 13.433H68.9203V13.433ZM68.7755 11.084C67.6199 11.084 67.0426 11.366 67.0426 12.035C67.0426 12.53 67.3412 12.772 67.7548 12.772C68.2845 12.772 68.7755 12.365 68.7755 11.812V11.084Z" fill="white"/>
<path d="M73.9992 13.54C73.3356 13.54 72.8456 13.258 72.5282 12.705H72.5073L72.4478 13.433H71.562C71.5908 13.055 71.6007 12.627 71.6007 12.162V6.55301H72.6412V9.40701H72.6611C72.9696 8.88301 73.4685 8.62101 74.153 8.62101C75.2798 8.62101 76.0694 9.59201 76.0694 11.008C76.0694 12.472 75.1925 13.54 73.9992 13.54ZM73.7879 9.44401C73.1898 9.44401 72.6422 9.96801 72.6422 10.696V11.521C72.6422 12.171 73.1342 12.705 73.7701 12.705C74.5488 12.705 75.012 12.065 75.012 11.046C75.011 10.095 74.5289 9.44401 73.7879 9.44401Z" fill="white"/>
<path d="M78.6455 13.433H77.6069V6.55301H78.6455V13.433Z" fill="white"/>
<path d="M84.3044 11.327H81.1838C81.2046 12.22 81.7898 12.724 82.6568 12.724C83.1191 12.724 83.5426 12.646 83.9176 12.501L84.0793 13.229C83.6368 13.423 83.1171 13.52 82.511 13.52C81.0469 13.52 80.1809 12.588 80.1809 11.143C80.1809 9.69702 81.0677 8.61002 82.3939 8.61002C83.5873 8.61002 84.3391 9.50302 84.3391 10.852C84.3431 11.036 84.3342 11.201 84.3044 11.327ZM83.3512 10.58C83.3512 9.85202 82.9851 9.33802 82.3205 9.33802C81.7234 9.33802 81.2532 9.86202 81.1838 10.58H83.3512V10.58Z" fill="white"/>
<path d="M90.6055 13.54C89.2386 13.54 88.3528 12.511 88.3528 11.114C88.3528 9.65803 89.2574 8.62003 90.6839 8.62003C92.0299 8.62003 92.9366 9.60003 92.9366 11.037C92.9366 12.511 92.0022 13.54 90.6055 13.54ZM90.6452 9.38603C89.8943 9.38603 89.4132 10.094 89.4132 11.084C89.4132 12.055 89.9042 12.763 90.6353 12.763C91.3663 12.763 91.8564 12.006 91.8564 11.064C91.8573 10.104 91.3762 9.38603 90.6452 9.38603Z" fill="white"/>
<path d="M98.5253 13.433H97.4867V10.725C97.4867 9.89102 97.1693 9.47302 96.5434 9.47302C95.9274 9.47302 95.5028 10.007 95.5028 10.628V13.433H94.4642V10.065C94.4642 9.64802 94.4533 9.20102 94.4255 8.71602H95.3401L95.3887 9.44402H95.4175C95.6952 8.94002 96.2646 8.61902 96.8995 8.61902C97.8805 8.61902 98.5253 9.37602 98.5253 10.608V13.433Z" fill="white"/>
<path d="M105.327 9.50302H104.183V11.793C104.183 12.376 104.384 12.667 104.788 12.667C104.972 12.667 105.126 12.647 105.25 12.618L105.279 13.414C105.077 13.492 104.806 13.531 104.472 13.531C103.652 13.531 103.163 13.075 103.163 11.881V9.50302H102.481V8.71702H103.163V7.85302L104.183 7.54202V8.71602H105.327V9.50302Z" fill="white"/>
<path d="M110.832 13.433H109.792V10.745C109.792 9.90101 109.474 9.47401 108.848 9.47401C108.31 9.47401 107.81 9.84301 107.81 10.59V13.433H106.769V6.55301H107.81V9.38601H107.83C108.157 8.87201 108.629 8.61901 109.235 8.61901C110.226 8.61901 110.832 9.39501 110.832 10.628V13.433Z" fill="white"/>
<path d="M116.144 11.327H113.024C113.044 12.22 113.629 12.724 114.496 12.724C114.96 12.724 115.382 12.646 115.757 12.501L115.92 13.229C115.477 13.423 114.957 13.52 114.351 13.52C112.886 13.52 112.021 12.588 112.021 11.143C112.021 9.69702 112.907 8.61002 114.234 8.61002C115.427 8.61002 116.179 9.50302 116.179 10.852C116.183 11.036 116.173 11.201 116.144 11.327ZM115.191 10.58C115.191 9.85202 114.826 9.33802 114.161 9.33802C113.563 9.33802 113.093 9.86202 113.024 10.58H115.191V10.58Z" fill="white"/>
</g>
<defs>
<linearGradient id="paint0_linear_2801_12659" x1="98.7076" y1="40.0972" x2="98.7076" y2="4.0513" gradientUnits="userSpaceOnUse">
<stop stop-color="#1A1A1A" stop-opacity="0.1"/>
<stop offset="0.1235" stop-color="#212121" stop-opacity="0.1506"/>
<stop offset="0.3085" stop-color="#353535" stop-opacity="0.2265"/>
<stop offset="0.5321" stop-color="#575757" stop-opacity="0.3181"/>
<stop offset="0.7834" stop-color="#858585" stop-opacity="0.4212"/>
<stop offset="1" stop-color="#B3B3B3" stop-opacity="0.51"/>
</linearGradient>
<clipPath id="clip0_2801_12659">
<rect width="133.913" height="40" fill="white" transform="translate(0.543457)"/>
</clipPath>
</defs>
</svg>
