<svg width="136" height="40" viewBox="0 0 136 40" fill="none" xmlns="http://www.w3.org/2000/svg">
<g clip-path="url(#clip0_2801_12691)">
<path d="M130.457 0H5.45654C2.69512 0 0.456543 2.23858 0.456543 5V35C0.456543 37.7614 2.69512 40 5.45654 40H130.457C133.218 40 135.457 37.7614 135.457 35V5C135.457 2.23858 133.218 0 130.457 0Z" fill="black"/>
<path d="M130.457 0.8C131.57 0.8 132.639 1.2425 133.426 2.03015C134.214 2.8178 134.657 3.88609 134.657 5V35C134.657 36.1139 134.214 37.1822 133.426 37.9698C132.639 38.7575 131.57 39.2 130.457 39.2H5.45654C4.34263 39.2 3.27435 38.7575 2.48669 37.9698C1.69904 37.1822 1.25654 36.1139 1.25654 35V5C1.25654 3.88609 1.69904 2.8178 2.48669 2.03015C3.27435 1.2425 4.34263 0.8 5.45654 0.8H130.457ZM130.457 0H5.45654C4.13046 0 2.85869 0.526784 1.92101 1.46447C0.983327 2.40215 0.456543 3.67392 0.456543 5V35C0.456543 36.3261 0.983327 37.5979 1.92101 38.5355C2.85869 39.4732 4.13046 40 5.45654 40H130.457C131.783 40 133.054 39.4732 133.992 38.5355C134.93 37.5979 135.457 36.3261 135.457 35V5C135.457 3.67392 134.93 2.40215 133.992 1.46447C133.054 0.526784 131.783 0 130.457 0Z" fill="#A6A6A6"/>
<path d="M47.8766 10.24C47.893 10.6067 47.835 10.973 47.7061 11.3167C47.5772 11.6604 47.3801 11.9745 47.1266 12.24C46.8425 12.5333 46.4997 12.7633 46.1205 12.9149C45.7414 13.0666 45.3346 13.1365 44.9266 13.12C44.5162 13.1291 44.1084 13.054 43.7282 12.8992C43.3481 12.7444 43.0038 12.5132 42.7166 12.22C42.1339 11.624 41.8076 10.8235 41.8076 9.99C41.8076 9.15646 42.1339 8.35603 42.7166 7.76C43.1621 7.32468 43.7263 7.03073 44.3383 6.91508C44.9504 6.79944 45.5829 6.86725 46.1566 7.11C46.5172 7.25823 46.8388 7.48748 47.0966 7.78L46.5666 8.30999C46.368 8.07077 46.1164 7.88113 45.8317 7.75615C45.547 7.63116 45.2371 7.57428 44.9266 7.59C44.5346 7.59271 44.1492 7.69139 43.8042 7.87741C43.4592 8.06343 43.165 8.33114 42.9473 8.65712C42.7296 8.98311 42.5951 9.35745 42.5555 9.74743C42.5158 10.1374 42.5724 10.5312 42.7201 10.8943C42.8678 11.2573 43.1021 11.5787 43.4027 11.8303C43.7033 12.0819 44.061 12.2561 44.4444 12.3375C44.8278 12.419 45.2254 12.4053 45.6023 12.2977C45.9792 12.19 46.324 11.9917 46.6066 11.72C46.912 11.3851 47.0891 10.9529 47.1066 10.5H44.9266V9.78H47.8366C47.8593 9.93236 47.8727 10.086 47.8766 10.24Z" fill="white" stroke="white" stroke-width="0.2" stroke-miterlimit="10"/>
<path d="M52.4566 7.74H49.7566V9.64H52.2166V10.36H49.7566V12.26H52.4566V13H48.9766V7H52.4566V7.74Z" fill="white" stroke="white" stroke-width="0.2" stroke-miterlimit="10"/>
<path d="M55.7366 13H54.9666V7.74H53.2866V7H57.4566V7.74H55.7366V13Z" fill="white" stroke="white" stroke-width="0.2" stroke-miterlimit="10"/>
<path d="M60.3965 13V7H61.1665V13H60.3965Z" fill="white" stroke="white" stroke-width="0.2" stroke-miterlimit="10"/>
<path d="M64.5865 13H63.8165V7.74H62.1365V7H66.2565V7.74H64.5865V13Z" fill="white" stroke="white" stroke-width="0.2" stroke-miterlimit="10"/>
<path d="M74.0665 12.22C73.7776 12.509 73.4347 12.7384 73.0572 12.8948C72.6797 13.0513 72.2751 13.1318 71.8665 13.1318C71.4578 13.1318 71.0532 13.0513 70.6757 12.8948C70.2982 12.7384 69.9553 12.509 69.6665 12.22C69.1011 11.619 68.7864 10.8251 68.7864 9.99999C68.7864 9.17493 69.1011 8.38094 69.6665 7.77999C69.9491 7.48279 70.2909 7.24822 70.6699 7.09147C71.0488 6.93471 71.4565 6.85926 71.8665 6.86999C72.2759 6.86352 72.6822 6.94091 73.0606 7.09741C73.4389 7.25391 73.7813 7.48621 74.0665 7.77999C74.354 8.07248 74.58 8.41962 74.7312 8.80092C74.8823 9.18221 74.9555 9.58993 74.9465 9.99999C74.9596 10.4106 74.8882 10.8195 74.7369 11.2013C74.5855 11.5832 74.3573 11.9299 74.0665 12.22V12.22ZM70.2365 11.72C70.4495 11.9359 70.7033 12.1073 70.9831 12.2243C71.2629 12.3413 71.5632 12.4015 71.8665 12.4015C72.1698 12.4015 72.47 12.3413 72.7498 12.2243C73.0296 12.1073 73.2834 11.9359 73.4965 11.72C73.928 11.2511 74.1674 10.6372 74.1674 9.99999C74.1674 9.36279 73.928 8.74886 73.4965 8.27999C73.2834 8.06411 73.0296 7.8927 72.7498 7.77571C72.47 7.65871 72.1698 7.59847 71.8665 7.59847C71.5632 7.59847 71.2629 7.65871 70.9831 7.77571C70.7033 7.8927 70.4495 8.06411 70.2365 8.27999C69.805 8.74886 69.5655 9.36279 69.5655 9.99999C69.5655 10.6372 69.805 11.2511 70.2365 11.72V11.72Z" fill="white" stroke="white" stroke-width="0.2" stroke-miterlimit="10"/>
<path d="M76.0366 13V7H76.9666L79.8866 11.67V10.51V7H80.6566V13H79.8566L76.8066 8.11V9.26V13H76.0366Z" fill="white" stroke="white" stroke-width="0.2" stroke-miterlimit="10"/>
<path d="M68.5966 21.75C67.7541 21.752 66.9311 22.0037 66.2316 22.4735C65.5322 22.9432 64.9877 23.6098 64.6671 24.389C64.3465 25.1682 64.2642 26.0249 64.4305 26.8509C64.5968 27.6768 65.0043 28.4349 65.6015 29.0293C66.1986 29.6237 66.9586 30.0276 67.7854 30.1901C68.6121 30.3525 69.4685 30.2661 70.2461 29.9419C71.0238 29.6176 71.6878 29.07 72.1543 28.3684C72.6207 27.6667 72.8686 26.8425 72.8666 26C72.8748 25.4379 72.7698 24.88 72.5578 24.3593C72.3459 23.8387 72.0313 23.366 71.6329 22.9695C71.2345 22.5729 70.7604 22.2606 70.2387 22.0511C69.7171 21.8416 69.1587 21.7392 68.5966 21.75V21.75ZM68.5966 28.58C68.0802 28.6161 67.5649 28.496 67.1176 28.2354C66.6703 27.9747 66.3118 27.5855 66.0887 27.1184C65.8655 26.6513 65.788 26.1279 65.8663 25.6161C65.9446 25.1044 66.175 24.6281 66.5276 24.249C66.8802 23.87 67.3387 23.6058 67.8434 23.4908C68.3482 23.3757 68.8758 23.4152 69.3578 23.6041C69.8398 23.7929 70.2539 24.1224 70.5462 24.5497C70.8384 24.977 70.9954 25.4823 70.9966 26C71.0128 26.328 70.963 26.6559 70.8504 26.9644C70.7377 27.2729 70.5645 27.5557 70.3408 27.7962C70.1171 28.0366 69.8475 28.2299 69.548 28.3645C69.2484 28.4991 68.925 28.5724 68.5966 28.58ZM59.2766 21.75C58.4341 21.752 57.6111 22.0037 56.9116 22.4735C56.2122 22.9432 55.6677 23.6098 55.3471 24.389C55.0265 25.1682 54.9442 26.0249 55.1105 26.8509C55.2768 27.6768 55.6843 28.4349 56.2815 29.0293C56.8786 29.6237 57.6386 30.0276 58.4654 30.1901C59.2921 30.3525 60.1485 30.2661 60.9261 29.9419C61.7038 29.6176 62.3678 29.07 62.8343 28.3684C63.3007 27.6667 63.5486 26.8425 63.5466 26C63.5548 25.4379 63.4498 24.88 63.2378 24.3593C63.0259 23.8387 62.7113 23.366 62.3129 22.9695C61.9145 22.5729 61.4404 22.2606 60.9187 22.0511C60.3971 21.8416 59.8387 21.7392 59.2766 21.75V21.75ZM59.2766 28.58C58.7602 28.6161 58.2449 28.496 57.7976 28.2354C57.3503 27.9747 56.9918 27.5855 56.7687 27.1184C56.5455 26.6513 56.468 26.1279 56.5463 25.6161C56.6246 25.1044 56.855 24.6281 57.2076 24.249C57.5602 23.87 58.0187 23.6058 58.5234 23.4908C59.0282 23.3757 59.5558 23.4152 60.0378 23.6041C60.5198 23.7929 60.9339 24.1224 61.2262 24.5497C61.5184 24.977 61.6754 25.4823 61.6766 26C61.6928 26.328 61.643 26.6559 61.5304 26.9644C61.4177 27.2729 61.2445 27.5557 61.0208 27.7962C60.7971 28.0366 60.5275 28.2299 60.228 28.3645C59.9284 28.4991 59.605 28.5724 59.2766 28.58ZM48.1966 23.06V24.86H52.5166C52.4489 25.7078 52.0965 26.5078 51.5166 27.13C51.0833 27.5715 50.5621 27.9171 49.9868 28.1445C49.4114 28.3719 48.7947 28.476 48.1766 28.45C46.9036 28.45 45.6827 27.9443 44.7825 27.0441C43.8824 26.1439 43.3766 24.923 43.3766 23.65C43.3766 22.3769 43.8824 21.156 44.7825 20.2559C45.6827 19.3557 46.9036 18.85 48.1766 18.85C49.3971 18.8318 50.5755 19.2953 51.4566 20.14L52.7266 18.87C52.1306 18.2805 51.423 17.8159 50.6451 17.5034C49.8672 17.1908 49.0348 17.0367 48.1966 17.05C47.3076 17.0154 46.4208 17.1606 45.5893 17.477C44.7577 17.7933 43.9986 18.2743 43.3574 18.891C42.7162 19.5077 42.2061 20.2476 41.8576 21.0662C41.5092 21.8848 41.3296 22.7653 41.3296 23.655C41.3296 24.5447 41.5092 25.4252 41.8576 26.2438C42.2061 27.0624 42.7162 27.8022 43.3574 28.419C43.9986 29.0357 44.7577 29.5167 45.5893 29.833C46.4208 30.1494 47.3076 30.2946 48.1966 30.26C49.0521 30.2941 49.905 30.147 50.6995 29.8281C51.4941 29.5093 52.2121 29.026 52.8066 28.41C53.8568 27.2564 54.4163 25.7392 54.3666 24.18C54.3702 23.8047 54.3401 23.4299 54.2766 23.06H48.1966ZM93.5066 24.46C93.2458 23.6927 92.7582 23.0228 92.1081 22.5388C91.4581 22.0549 90.6765 21.7798 89.8666 21.75C89.3196 21.7489 88.7782 21.86 88.2759 22.0765C87.7735 22.293 87.3209 22.6102 86.946 23.0085C86.5711 23.4068 86.2819 23.8778 86.0963 24.3924C85.9106 24.9069 85.8325 25.454 85.8666 26C85.8581 26.9128 86.1451 27.804 86.6848 28.5402C87.2244 29.2765 87.9878 29.8185 88.8609 30.0851C89.734 30.3518 90.6699 30.3288 91.5289 30.0197C92.3878 29.7106 93.1237 29.1318 93.6266 28.37L92.1766 27.37C91.9605 27.7303 91.6539 28.0278 91.2873 28.233C90.9207 28.4382 90.5068 28.5441 90.0866 28.54C89.6532 28.5579 89.2245 28.4442 88.8569 28.214C88.4892 27.9838 88.1998 27.6477 88.0266 27.25L93.7166 24.9L93.5066 24.46ZM87.7066 25.88C87.6864 25.5694 87.7283 25.2578 87.8299 24.9636C87.9316 24.6694 88.0909 24.3984 88.2985 24.1665C88.5062 23.9346 88.7581 23.7465 89.0393 23.6132C89.3206 23.4798 89.6257 23.404 89.9366 23.39C90.2589 23.3703 90.5797 23.4462 90.859 23.6081C91.1383 23.7699 91.3636 24.0106 91.5066 24.3L87.7066 25.88ZM83.0866 30H84.9566V17.5H83.0866V30ZM80.0266 22.7H79.9566C79.6773 22.3818 79.3325 22.1278 78.9459 21.9552C78.5593 21.7826 78.14 21.6956 77.7166 21.7C76.6238 21.753 75.5933 22.2244 74.8386 23.0166C74.0839 23.8087 73.663 24.8609 73.663 25.955C73.663 27.0491 74.0839 28.1012 74.8386 28.8934C75.5933 29.6856 76.6238 30.157 77.7166 30.21C78.1406 30.2185 78.5612 30.1333 78.9484 29.9604C79.3356 29.7875 79.6799 29.5313 79.9566 29.21H80.0266V29.82C80.0266 31.45 79.1566 32.32 77.7566 32.32C77.289 32.3097 76.8349 32.1607 76.4521 31.8918C76.0693 31.623 75.775 31.2464 75.6066 30.81L73.9866 31.48C74.2861 32.2322 74.8069 32.8759 75.48 33.3258C76.1532 33.7758 76.947 34.0109 77.7566 34C79.9466 34 81.7566 32.71 81.7566 29.57V22H80.0266V22.7ZM77.8766 28.58C77.2214 28.5391 76.6065 28.2501 76.1569 27.7716C75.7074 27.2932 75.4572 26.6615 75.4572 26.005C75.4572 25.3485 75.7074 24.7167 76.1569 24.2383C76.6065 23.7599 77.2214 23.4708 77.8766 23.43C78.1969 23.4438 78.5111 23.5219 78.8005 23.6596C79.0899 23.7973 79.3487 23.9919 79.5614 24.2317C79.7742 24.4714 79.9365 24.7516 80.0387 25.0553C80.141 25.3591 80.1811 25.6804 80.1566 26C80.1839 26.3207 80.1459 26.6436 80.0448 26.9491C79.9437 27.2547 79.7817 27.5366 79.5686 27.7778C79.3555 28.0189 79.0957 28.2144 78.8048 28.3523C78.514 28.4902 78.1983 28.5676 77.8766 28.58V28.58ZM102.267 17.5H97.7866V30H99.6566V25.26H102.267C102.8 25.2983 103.335 25.2264 103.839 25.0487C104.343 24.8711 104.805 24.5915 105.196 24.2275C105.587 23.8634 105.899 23.4227 106.112 22.9328C106.325 22.4429 106.435 21.9143 106.435 21.38C106.435 20.8457 106.325 20.3171 106.112 19.8272C105.899 19.3372 105.587 18.8965 105.196 18.5325C104.805 18.1685 104.343 17.8889 103.839 17.7113C103.335 17.5336 102.8 17.4617 102.267 17.5V17.5ZM102.267 23.5H99.6566V19.24H102.307C102.588 19.24 102.866 19.2953 103.126 19.4029C103.385 19.5104 103.621 19.6681 103.82 19.8668C104.019 20.0655 104.176 20.3014 104.284 20.561C104.391 20.8207 104.447 21.099 104.447 21.38C104.447 21.661 104.391 21.9393 104.284 22.1989C104.176 22.4586 104.019 22.6945 103.82 22.8932C103.621 23.0919 103.385 23.2495 103.126 23.3571C102.866 23.4646 102.588 23.52 102.307 23.52L102.267 23.5ZM113.807 21.71C113.126 21.668 112.447 21.8265 111.855 22.166C111.264 22.5055 110.784 23.011 110.477 23.62L112.127 24.31C112.293 24.0094 112.544 23.7635 112.847 23.602C113.15 23.4405 113.494 23.3704 113.837 23.4C114.074 23.3723 114.315 23.3921 114.544 23.4583C114.774 23.5245 114.988 23.6358 115.174 23.7857C115.36 23.9356 115.515 24.121 115.629 24.3312C115.742 24.5414 115.813 24.7722 115.837 25.01V25.13C115.235 24.8139 114.566 24.6491 113.887 24.65C112.107 24.65 110.287 25.65 110.287 27.47C110.304 27.8568 110.399 28.2362 110.566 28.5855C110.734 28.9349 110.969 29.2471 111.259 29.5036C111.549 29.7601 111.888 29.9557 112.255 30.0788C112.622 30.2018 113.011 30.2499 113.397 30.22C113.866 30.2459 114.334 30.1466 114.752 29.9323C115.17 29.7179 115.524 29.3961 115.777 29H115.837V30H117.637V25.19C117.637 23 115.977 21.73 113.847 21.73L113.807 21.71ZM113.577 28.56C112.967 28.56 112.117 28.25 112.117 27.5C112.117 26.5 113.177 26.16 114.117 26.16C114.711 26.1453 115.298 26.2904 115.817 26.58C115.754 27.1231 115.496 27.625 115.092 27.9927C114.687 28.3604 114.163 28.5691 113.617 28.58L113.577 28.56ZM124.197 22L122.057 27.42H121.997L119.777 22H117.777L121.107 29.58L119.207 33.79H121.157L126.277 22H124.197ZM107.397 30H109.257V17.5H107.397V30Z" fill="white"/>
<path d="M10.8967 7.54C10.5671 7.92962 10.399 8.43047 10.4267 8.94V31.06C10.3926 31.5704 10.5616 32.0735 10.8967 32.46L10.9667 32.54L23.3567 20.15V19.85L10.9667 7.47L10.8967 7.54Z" fill="url(#paint0_linear_2801_12691)"/>
<path d="M27.4564 24.28L23.3564 20.15V19.85L27.4564 15.72L27.5464 15.78L32.4564 18.56C33.8564 19.35 33.8564 20.65 32.4564 21.45L27.5664 24.23L27.4564 24.28Z" fill="url(#paint1_linear_2801_12691)"/>
<path d="M27.5765 24.22L23.3565 20L10.8965 32.46C11.1791 32.7115 11.5407 32.8562 11.9188 32.869C12.2969 32.8818 12.6676 32.7619 12.9665 32.53L27.5765 24.22" fill="url(#paint2_linear_2801_12691)"/>
<path d="M27.5765 15.78L12.9665 7.48C12.6695 7.24491 12.2992 7.12206 11.9206 7.13303C11.542 7.14401 11.1793 7.28811 10.8965 7.54L23.3565 20L27.5765 15.78Z" fill="url(#paint3_linear_2801_12691)"/>
<path opacity="0.2" d="M27.4565 24.13L12.9665 32.38C12.6784 32.5974 12.3274 32.715 11.9665 32.715C11.6056 32.715 11.2545 32.5974 10.9665 32.38V32.38L10.8965 32.45L10.9665 32.53C11.2545 32.7474 11.6056 32.865 11.9665 32.865C12.3274 32.865 12.6784 32.7474 12.9665 32.53L27.5765 24.22L27.4565 24.13Z" fill="black"/>
<path opacity="0.12" d="M10.8964 32.32C10.5752 31.9234 10.4178 31.4189 10.4564 30.91V31.06C10.4224 31.5704 10.5913 32.0735 10.9264 32.46L10.9964 32.39L10.8964 32.32Z" fill="black"/>
<path opacity="0.12" d="M32.4565 21.3L27.4565 24.13L27.5465 24.22L32.4565 21.44C32.7464 21.3174 32.9978 21.119 33.1843 20.8656C33.3709 20.6122 33.4856 20.3132 33.5165 20C33.454 20.2846 33.3255 20.5505 33.1414 20.7763C32.9573 21.0021 32.7227 21.1815 32.4565 21.3Z" fill="black"/>
<path opacity="0.25" d="M12.9665 7.62001L32.4565 18.7C32.7227 18.8185 32.9573 18.9979 33.1414 19.2237C33.3255 19.4495 33.454 19.7154 33.5165 20C33.4856 19.6869 33.3709 19.3878 33.1843 19.1344C32.9978 18.881 32.7463 18.6826 32.4565 18.56L12.9665 7.48001C11.5765 6.68001 10.4265 7.34001 10.4265 8.94001V9.09001C10.4565 7.49001 11.5765 6.83001 12.9665 7.62001Z" fill="white"/>
</g>
<defs>
<linearGradient id="paint0_linear_2801_12691" x1="22.2567" y1="8.71" x2="5.47666" y2="25.49" gradientUnits="userSpaceOnUse">
<stop stop-color="#00A0FF"/>
<stop offset="0.01" stop-color="#00A1FF"/>
<stop offset="0.26" stop-color="#00BEFF"/>
<stop offset="0.51" stop-color="#00D2FF"/>
<stop offset="0.76" stop-color="#00DFFF"/>
<stop offset="1" stop-color="#00E3FF"/>
</linearGradient>
<linearGradient id="paint1_linear_2801_12691" x1="34.2864" y1="20" x2="10.0964" y2="20" gradientUnits="userSpaceOnUse">
<stop stop-color="#FFE000"/>
<stop offset="0.41" stop-color="#FFBD00"/>
<stop offset="0.78" stop-color="#FFA500"/>
<stop offset="1" stop-color="#FF9C00"/>
</linearGradient>
<linearGradient id="paint2_linear_2801_12691" x1="25.2865" y1="22.3" x2="2.52648" y2="45.05" gradientUnits="userSpaceOnUse">
<stop stop-color="#FF3A44"/>
<stop offset="1" stop-color="#C31162"/>
</linearGradient>
<linearGradient id="paint3_linear_2801_12691" x1="7.75648" y1="0.18" x2="17.9165" y2="10.34" gradientUnits="userSpaceOnUse">
<stop stop-color="#32A071"/>
<stop offset="0.07" stop-color="#2DA771"/>
<stop offset="0.48" stop-color="#15CF74"/>
<stop offset="0.8" stop-color="#06E775"/>
<stop offset="1" stop-color="#00F076"/>
</linearGradient>
<clipPath id="clip0_2801_12691">
<rect width="135" height="40" fill="white" transform="translate(0.456543)"/>
</clipPath>
</defs>
</svg>
