<svg width="12" height="18" fill="none" xmlns="http://www.w3.org/2000/svg"><path d="M5.236 12.873c-1.327-.137-2.525-.46-3.55-1.251-.127-.099-.258-.194-.374-.303-.449-.426-.494-.913-.14-1.415.305-.43.814-.544 1.344-.298.103.048.2.108.294.172 1.91 1.295 4.535 1.331 6.452.058.19-.144.394-.26.629-.32.457-.117.884.05 1.13.445.28.45.277.891-.069 1.242-.53.537-1.168.926-1.876 1.197-.67.256-1.404.385-2.13.471.109.118.16.176.23.244.985.978 1.976 1.952 2.96 2.933.334.334.404.749.22 1.137-.202.425-.653.705-1.096.675-.28-.02-.5-.157-.693-.35-.745-.74-1.503-1.465-2.232-2.218-.212-.22-.314-.178-.502.013-.748.76-1.51 1.51-2.275 2.254-.344.335-.753.395-1.151.204-.424-.203-.694-.63-.673-1.059.015-.29.16-.512.361-.71.976-.962 1.95-1.927 2.923-2.89.065-.064.125-.132.218-.231z" fill="#fff"/><path d="M6.046 9.522c-2.37-.008-4.312-1.947-4.298-4.288.014-2.368 1.957-4.276 4.35-4.27A4.308 4.308 0 0110.407 5.3c-.013 2.337-1.969 4.23-4.361 4.223zm2.152-4.283A2.098 2.098 0 006.08 3.15a2.1 2.1 0 00-2.123 2.115c.01 1.159.955 2.078 2.134 2.074A2.093 2.093 0 008.198 5.24z" fill="#fff"/></svg>