<svg width="17" height="10" fill="none" xmlns="http://www.w3.org/2000/svg"><path d="M16.164 8.873c-.646-1.137-2.309-2.504-2.996-3.099a.43.43 0 01-.037-.625c1.31-1.378 2.36-2.962 2.72-3.919.16-.423-.17-.87-.635-.87h-1.348c-.445 0-.705.157-.83.405-1.088 2.185-2.023 3.13-2.677 3.683-.366.31-.937.053-.937-.418V1.118a.741.741 0 00-.753-.73L6.207.361c-.31 0-.487.343-.301.584l.407.572c.153.198.236.439.236.686l-.003 2.574c0 .448-.554.666-.883.353C4.549 4.068 3.583 1.9 3.235.864A.749.749 0 002.522.36L1.192.357C.695.357.33.82.467 1.286 1.68 5.456 4.171 9.424 8.61 9.854a.742.742 0 00.815-.73V7.773c0-.388.31-.721.71-.731h.042c1.175 0 2.49 1.672 2.95 2.454a.746.746 0 00.646.362h1.787c.522 0 .857-.54.605-.984z" fill="#fff"/></svg>