<svg width="101" height="100" fill="none" xmlns="http://www.w3.org/2000/svg"><circle cx="50" cy="40" r="40" fill="#fff" fill-opacity=".2"/><path d="M98.047 96.094h-.781V60.576a1.941 1.941 0 002.497-.854 1.953 1.953 0 00-.783-2.65L73.828 43.404v-3.755a1.95 1.95 0 00-.572-1.38L51.953 16.963V9.961h2.344a1.953 1.953 0 000-3.906h-2.344V1.953a1.953 1.953 0 00-3.906 0v4.102h-2.294a1.953 1.953 0 000 3.906h2.294v7.003L26.744 38.267a1.953 1.953 0 00-.572 1.381v3.755L1.021 57.073a1.953 1.953 0 00.934 3.67c.263 0 .527-.057.78-.167v35.518h-.782a1.953 1.953 0 000 3.906h96.094a1.953 1.953 0 000-3.906zM28.125 68.226a1.953 1.953 0 00-1.953 1.954v25.914H6.641v-37.63L26.172 47.85v4.753a1.953 1.953 0 003.906 0V40.458L50 20.536l19.922 19.922v55.636h-7.031v-16.24c0-7.108-5.783-12.89-12.89-12.89-7.109 0-12.891 5.782-12.891 12.89v16.24h-7.032V70.18a1.953 1.953 0 00-1.953-1.954zm12.89 11.629c0-4.284 3.014-7.874 7.032-8.768v25.007h-7.031v-16.24zm10.938 16.239V71.086c4.018.895 7.032 4.485 7.032 8.768v16.24h-7.032zm21.875 0V47.849L93.36 58.464v37.63H73.83z" fill="#FBE6BF"/><path d="M50 57.126c4.954 0 8.985-4.03 8.985-8.984s-4.03-8.985-8.985-8.985c-4.954 0-8.984 4.031-8.984 8.985s4.03 8.984 8.984 8.984zm0-14.062c2.8 0 5.078 2.278 5.078 5.078 0 2.8-2.278 5.078-5.078 5.078a5.084 5.084 0 01-5.078-5.078c0-2.8 2.278-5.078 5.078-5.078zm33.594 25.344a5.866 5.866 0 00-5.86 5.86v11.328c0 1.078.875 1.953 1.954 1.953H87.5a1.953 1.953 0 001.953-1.953V74.267a5.866 5.866 0 00-5.859-5.859zm1.953 15.234h-3.906v-9.374c0-1.078.876-1.954 1.953-1.954s1.953.877 1.953 1.954v9.374zm-69.14-15.234a5.866 5.866 0 00-5.86 5.86v11.328c0 1.078.875 1.953 1.953 1.953h7.813a1.953 1.953 0 001.953-1.953V74.267a5.867 5.867 0 00-5.86-5.859zm1.953 15.234h-3.907v-9.374c0-1.078.877-1.954 1.954-1.954 1.076 0 1.953.877 1.953 1.954v9.374zM29.506 60.01a1.967 1.967 0 00-1.38-.573c-.514 0-1.018.21-1.382.573a1.968 1.968 0 00-.572 1.38c0 .514.209 1.018.572 1.381.364.364.868.573 1.381.573.514 0 1.018-.21 1.38-.573.364-.363.573-.867.573-1.38 0-.514-.209-1.018-.572-1.381z" fill="#FBE6BF"/></svg>