<svg width="101" height="100" fill="none" xmlns="http://www.w3.org/2000/svg"><ellipse cx="50.5" cy="40" rx="40.4" ry="40" fill="#fff" fill-opacity=".2"/><path d="M99.877 61.82c-2.121-3.402-6.605-4.497-10.428-2.548l-17.535 8.912a7.889 7.889 0 00-5.776-2.505H54.225c-.71 0-.894-.058-.934-.076-.113-.052-.416-.335-.708-.608l-.103-.096C42.931 56 34.858 56.568 25.673 60.155c-1.516.592-1.574.595-3.067.66l-2.662.004v-.733c0-3.055-2.51-5.539-5.595-5.539H5.595C2.51 54.547 0 57.031 0 60.085V87.48c0 3.054 2.51 5.539 5.595 5.539h8.755c3.085 0 5.595-2.485 5.595-5.539v-.73h4.853c.464 0 .464 0 .988.146.186.051 6.261 1.663 6.261 1.663a1.97 1.97 0 002.415-1.382 1.95 1.95 0 00-1.395-2.39s-6.042-1.604-6.215-1.652c-.813-.226-1.09-.29-2.054-.29h-4.854V64.726h2.584c.03 0 .06 0 .089-.002l.165-.007c1.788-.08 2.288-.128 4.338-.93 8.217-3.209 14.558-3.59 22.654 3.953l.098.092c1.33 1.245 2.097 1.752 4.353 1.752h11.913c2.168 0 3.931 1.748 3.931 3.896 0 2.145-1.763 3.89-3.931 3.89l-19.304.005c-1.09 0-1.972.875-1.972 1.954s.884 1.953 1.973 1.952l19.303-.005c4.343 0 7.876-3.497 7.876-7.796 0-.64-.08-1.262-.227-1.858l17.466-8.878c1.722-.877 4.084-.772 5.269 1.129 1.045 1.672.477 3.885-1.323 5.15l-27.91 19.674c-5.825 3.84-8.288 3.133-14.226 1.427-.906-.26-1.842-.53-2.879-.807a1.976 1.976 0 00-2.419 1.375 1.951 1.951 0 001.39 2.396c1.002.268 1.92.532 2.809.787 2.877.827 5.294 1.522 7.814 1.521 2.844 0 5.817-.885 9.725-3.465l.05-.034 27.931-19.69c3.52-2.472 4.549-6.939 2.393-10.388zM16 87.48c0 .9-.74 1.632-1.65 1.632H5.595c-.91 0-1.65-.732-1.65-1.633V60.085c0-.9.74-1.632 1.65-1.632h8.755c.91 0 1.65.732 1.65 1.632V87.48zm14.103-54.064l21.791 20.82c.382.366.876.548 1.37.548.494 0 .987-.182 1.37-.547l7.931-7.577 7.934 7.577c.382.365.876.547 1.37.547a1.98 1.98 0 001.37-.547l12.589-12.023.05-.05c4.197-4.309 4.196-11.314 0-15.615a9.01 9.01 0 00-4.624-2.538c1.016-5.697-.717-11.54-4.774-15.7-2.872-2.945-6.809-4.473-11.092-4.297-4.06.165-7.98 1.816-11.039 4.648l-.2.184c-.3.28-.627.582-.882.802a36.87 36.87 0 01-.882-.802l-.2-.184c-3.058-2.832-6.978-4.483-11.038-4.648-4.282-.174-8.22 1.352-11.093 4.297-6.737 6.911-6.737 18.152 0 25.056l.049.049zm52.937-4.154c2.73 2.799 2.738 7.352.021 10.166l-11.193 10.69-11.192-10.69c-2.717-2.814-2.71-7.367.023-10.167 2.367-2.43 6.214-1.732 8.417.306l.117.11c.822.763 1.531 1.423 2.633 1.423 1.1 0 1.777-.627 2.634-1.421l.118-.11c2.206-2.04 6.053-2.739 8.422-.307zM32.892 11.024c4.204-4.312 11.65-4.092 16.599.49l.197.184c1.35 1.251 2.242 2.078 3.579 2.078 1.337 0 2.228-.827 3.578-2.078l.198-.184c4.949-4.582 12.394-4.802 16.599-.49 3.331 3.415 4.655 8.295 3.59 12.979a10.935 10.935 0 00-5.306 2.712l-.058.053-.056-.053c-1.914-1.77-4.369-2.802-6.912-2.904-2.713-.11-5.213.863-7.04 2.737-4.197 4.302-4.197 11.307 0 15.616l.05.05 1.814 1.732-6.46 6.171L32.868 30.63c-5.255-5.41-5.247-14.198.024-19.605z" fill="#FBE6BF"/><path d="M41.116 86.987c-1.09 0-1.973.875-1.973 1.953 0 1.079.883 1.953 1.973 1.953h.005a1.96 1.96 0 001.97-1.953 1.965 1.965 0 00-1.975-1.953z" fill="#FBE6BF"/></svg>