<svg width="101" height="100" fill="none" xmlns="http://www.w3.org/2000/svg"><ellipse cx="50.5" cy="40" rx="40.4" ry="40" fill="#fff" fill-opacity=".2"/><path d="M99.027 80.469h-1.972V31.238c0-5.385-4.425-9.766-9.864-9.766H76.735V9.766C76.735 4.38 72.31 0 66.87 0H34.13c-5.439 0-9.864 4.38-9.864 9.766v11.706H13.81c-5.439 0-9.864 4.381-9.864 9.766v49.23H1.973c-1.09 0-1.973.875-1.973 1.954v7.812C0 95.62 4.425 100 9.863 100h81.274c5.438 0 9.863-4.38 9.863-9.766v-7.812a1.963 1.963 0 00-1.973-1.953zm-11.836-55.09c3.264 0 5.918 2.628 5.918 5.859v49.23h-4.734V32.02a1.963 1.963 0 00-1.973-1.953h-9.667v-4.688H87.19zM34.13 3.906h32.74c3.263 0 5.918 2.629 5.918 5.86v27.343c0 3.231-2.655 5.86-5.918 5.86H56.843a1.98 1.98 0 00-1.68.929l-4.646 7.47-4.684-7.476a1.977 1.977 0 00-1.676-.923H34.129c-3.264 0-5.918-2.629-5.918-5.86V9.766c0-3.231 2.655-5.86 5.918-5.86zM7.89 31.238c0-3.231 2.654-5.86 5.918-5.86h10.456v4.688h-9.667c-1.09 0-1.973.874-1.973 1.953v48.45H7.891V31.238zm89.164 58.996c0 3.231-2.655 5.86-5.918 5.86H9.863c-3.263 0-5.918-2.629-5.918-5.86v-5.859h37.678c1.09 0 1.973-.875 1.973-1.953a1.963 1.963 0 00-1.973-1.953H16.57V33.972h7.695v3.137c0 5.385 4.425 9.766 9.864 9.766h8.93l5.788 9.238c.36.574.994.924 1.677.924h.003a1.977 1.977 0 001.677-.93l5.741-9.232h8.926c5.439 0 9.864-4.38 9.864-9.766v-3.137h7.695V80.47H59.377c-1.09 0-1.973.874-1.973 1.953 0 1.078.884 1.953 1.973 1.953h37.678v5.86z" fill="#FBE6BF"/><path d="M58.3 88.281H42.7c-1.09 0-1.973.875-1.973 1.953 0 1.079.884 1.954 1.973 1.954h15.6c1.09 0 1.973-.875 1.973-1.954a1.963 1.963 0 00-1.973-1.953zm-9.195-50.759c.385.38.89.572 1.395.572s1.01-.19 1.395-.572l9.602-9.507a9.18 9.18 0 002.747-6.567 9.18 9.18 0 00-2.747-6.567A9.392 9.392 0 0050.5 13.223a9.392 9.392 0 00-10.997 1.658 9.18 9.18 0 00-2.747 6.567 9.18 9.18 0 002.747 6.567l9.602 9.507zm-6.812-19.879a5.475 5.475 0 013.855-1.566c1.119 0 2.24.336 3.188 1.021a1.99 1.99 0 002.328 0c2.139-1.547 5.166-1.313 7.043.545a5.35 5.35 0 010 7.61L50.5 33.379l-8.207-8.126a5.35 5.35 0 010-7.61zM50.5 84.375c.519 0 1.028-.209 1.395-.573.367-.363.578-.867.578-1.38 0-.514-.211-1.018-.578-1.381a1.997 1.997 0 00-1.395-.572 2 2 0 00-1.395.572 1.958 1.958 0 00-.578 1.38c0 .514.211 1.018.578 1.381.367.364.876.573 1.395.573z" fill="#FBE6BF"/></svg>