<svg width="50" height="50" fill="none" xmlns="http://www.w3.org/2000/svg"><g clip-path="url(#clip0)"><circle cx="25.5" cy="32.5" r="17.5" fill="#E3E9FB"/><path d="M6.62 40.337a.977.977 0 001.182.715l4.722-1.164a.977.977 0 00.743-.935c.124-9.574.176-9.698 2.885-16.18l2.618-5.864a.977.977 0 00-1.782-.8L14.35 22.02c-2.725 6.52-2.9 6.937-3.026 16.152l-3.989.983a.977.977 0 00-.715 1.182zm35.906 7.714c-2.426-.234-4.854-.74-7.023-1.465a.977.977 0 00-.619 1.853c2.307.77 4.884 1.308 7.454 1.556a.977.977 0 00.188-1.944z" fill="#3B575E"/><path d="M37.477 39.888l4.721 1.164a.977.977 0 00.468-1.897l-3.99-.983c-.126-9.215-.3-9.632-3.026-16.151l-5.84-13.04c-.775-1.727-2.601-2.081-3.925-1.538-.318.13-.622.32-.885.561a3 3 0 00-.884-.561c-1.325-.543-3.15-.189-3.926 1.538a.977.977 0 001.781.8c.332-.739 1.063-.67 1.404-.531.305.125.77.458.464 1.283l-2.752 7.396c-1.113.2-2.052 1.094-2.374 2.354-.46 1.804-.876 3.54-1.278 5.22-.203.85-.407 1.7-.617 2.562a.977.977 0 101.898.462c.21-.864.415-1.717.618-2.57.4-1.672.815-3.402 1.271-5.19.129-.504.499-.981 1.037-.923l.029.004c.496.07.847.527.785 1.025-.063.504-.17 1.487-.273 2.437-.103.943-.208 1.918-.27 2.407-.334 2.681-.235 3.003.642 4.716.167.325.355.694.584 1.17 1.014 2.072.844 4.913-.537 8.94-1.473 4.297-8.874 6.904-15.127 7.507a.977.977 0 00.188 1.944c7.085-.683 15.024-3.675 16.787-8.817.209-.61.392-1.198.55-1.766.159.568.341 1.156.55 1.766.393 1.145 1.112 2.232 2.138 3.231a.973.973 0 001.38-.018.977.977 0 00-.017-1.38c-.804-.784-1.36-1.613-1.653-2.466-1.38-4.028-1.551-6.869-.534-8.948.226-.47.415-.838.581-1.163.877-1.713.976-2.035.642-4.716-.061-.49-.167-1.466-.27-2.411-.103-.949-.21-1.93-.272-2.433a.913.913 0 01.189-.677.914.914 0 01.624-.352c.539-.059.909.42 1.037.922.456 1.787.87 3.515 1.27 5.185.204.855.408 1.71.62 2.576a.977.977 0 001.897-.462 692.23 692.23 0 01-.618-2.568 351.596 351.596 0 00-1.277-5.214c-.321-1.26-1.26-2.155-2.374-2.354l-2.752-7.396c-.306-.825.16-1.158.465-1.283.34-.14 1.07-.208 1.403.531l5.82 12.992c2.709 6.48 2.76 6.605 2.885 16.179a.976.976 0 00.743.935zM26.968 18.303a2.878 2.878 0 00-1.361 2.813c.06.488.166 1.461.268 2.402.104.952.21 1.937.274 2.441.273 2.188.273 2.188-.442 3.585-.163.319-.367.716-.6 1.2a7.663 7.663 0 00-.107.23 50.927 50.927 0 00-.707-1.43c-.714-1.396-.714-1.396-.441-3.585.063-.504.17-1.486.272-2.437.103-.942.209-1.917.27-2.406a2.878 2.878 0 00-1.362-2.813L25 13.014l1.968 5.29zM25 5.143c.54 0 .977-.438.977-.977V.976a.977.977 0 00-1.954 0v3.19c0 .54.438.977.977.977zm-9.647 1.87a.976.976 0 101.692-.977L15.45 3.274a.976.976 0 10-1.691.977l1.594 2.762zm-8.848 5.206l2.763 1.594a.976.976 0 10.977-1.691l-2.763-1.595a.977.977 0 00-.977 1.692zm1.869 9.55a.977.977 0 00-.976-.977h-3.19a.977.977 0 000 1.953h3.19a.976.976 0 00.976-.976zM33.313 7.37a.976.976 0 001.334-.357l1.595-2.762a.977.977 0 00-1.691-.977l-1.595 2.762a.977.977 0 00.357 1.334zm6.932 6.574a.972.972 0 00.488-.13l2.762-1.596a.976.976 0 10-.977-1.691l-2.762 1.595a.977.977 0 00.49 1.822zm5.547 6.848h-3.19a.977.977 0 000 1.953h3.19a.977.977 0 000-1.953z" fill="#3B575E"/><path d="M19.043 13.82a.973.973 0 001.31-.438.976.976 0 10-1.31.437zM31.96 45.083h-.002a.976.976 0 10-.77 1.793.976.976 0 00.771-1.793z" fill="#3B575E"/></g><defs><clipPath id="clip0"><path fill="#fff" d="M0 0h50v50H0z"/></clipPath></defs></svg>