<svg width="51" height="50" fill="none" xmlns="http://www.w3.org/2000/svg"><g clip-path="url(#clip0)"><g clip-path="url(#clip1)"><circle cx="26.167" cy="32.5" r="17.5" fill="#E3E9FB"/><path d="M5.55 28.037a.977.977 0 100 1.954.977.977 0 000-1.954z" fill="#3B575E"/><path d="M45.551 31.423l-9.206 3.165c.04-.226.064-.458.064-.692a3.91 3.91 0 00-3.907-3.906h-6.324a.977.977 0 01-.48-.126l-5.159-2.902a6.843 6.843 0 00-3.352-.879h-6.923a2.934 2.934 0 00-2.761-1.952h-5.86a.976.976 0 00-.976.976v17.578c0 .54.437.977.976.977h5.86c1.244 0 2.31-.782 2.734-1.88 1.105.137 2.384.464 3.188.947l5.107 3.064a12.452 12.452 0 0011.557.66l18.227-8.026c2.019-.82 3.016-3.241 1.862-5.376-.849-1.57-2.837-2.27-4.627-1.628zM8.48 40.737a.978.978 0 01-.976.971H2.62V26.084h4.883c.538 0 .976.438.976.976v13.677zm39.095-4.117l-.03.013-18.258 8.04a10.496 10.496 0 01-9.748-.554l-5.108-3.065c-1.094-.656-2.659-1.056-3.998-1.216V28.037h6.755c.838 0 1.666.217 2.395.628l5.159 2.901c.437.247.935.377 1.437.377h6.324c1.077 0 1.953.876 1.953 1.953a1.958 1.958 0 01-1.953 1.953h-9.927a.977.977 0 100 1.953h9.927c.64 0 1.271-.159 1.831-.457l11.874-4.082c.875-.316 1.865-.001 2.253.717.581 1.076.1 2.246-.886 2.64zM29.109 26.128a.975.975 0 001.28 0c7.967-6.905 12.896-10.4 12.896-15.83 0-4.296-3.042-7.857-7.315-7.857-2.806 0-4.955 1.618-6.339 4.045-1.38-2.422-3.527-4.045-6.337-4.045-3.272 0-6.006 2.12-6.968 5.4a.977.977 0 001.875.55c.71-2.428 2.71-3.996 5.093-3.996 2.785 0 4.74 2.473 5.396 4.777a.977.977 0 001.882 0c.014-.048 1.37-4.777 5.398-4.777 3.056 0 5.361 2.537 5.361 5.903 0 4.344-4.246 7.476-11.583 13.802-4.47-3.839-8.022-6.541-10.04-9.185a.976.976 0 10-1.553 1.185c2.275 2.98 6.116 5.835 10.954 10.028z" fill="#3B575E"/><path d="M17.17 11.045a.977.977 0 10.001 1.954.977.977 0 000-1.954z" fill="#3B575E"/></g></g><defs><clipPath id="clip0"><path fill="#fff" transform="translate(.667)" d="M0 0h50v50H0z"/></clipPath><clipPath id="clip1"><path fill="#fff" transform="translate(.667)" d="M0 0h50v50H0z"/></clipPath></defs></svg>