<svg width="51" height="50" fill="none" xmlns="http://www.w3.org/2000/svg"><g clip-path="url(#clip0)"><circle cx="25.834" cy="32.5" r="17.5" fill="#E3E9FB"/><path d="M3.27 40.35a.977.977 0 001.121.85c.059-.01 5.899-.91 8.953-.027 4.405 1.272 7.357 4.43 8.102 5.295A3.911 3.911 0 0025.334 50c2.028 0 3.7-1.554 3.888-3.533.742-.866 3.678-4.017 8.101-5.294 3.05-.88 8.895.017 8.953.026a.977.977 0 001.121-.85l.945-7.94a.976.976 0 10-1.939-.23l-.828 6.955c-1.918-.233-6.127-.608-8.794.162-3.39.98-5.97 2.904-7.541 4.352V18.804c.532-.933 3.186-5.132 7.812-5.132 3.598 0 7.919 1.203 11.249 2.565l-.859 7.213a.977.977 0 001.94.231l.945-7.94a.977.977 0 00-.566-1.005c-.067-.03-1.513-.684-3.662-1.379l.713-6.413a.976.976 0 00-.97-1.085c-.773 0-1.549.046-2.317.136l.36-4.947A.977.977 0 0042.913 0a14.815 14.815 0 00-14.609 12.375c-1.027 6.208-1.016 6.014-1.016 6.18a1.955 1.955 0 01-1.953 1.953 1.955 1.955 0 01-1.953-1.953c0-.206-.067-.415-1.017-6.18A14.815 14.815 0 007.756 0a.977.977 0 00-.974 1.048l.36 4.947a19.968 19.968 0 00-2.316-.136.977.977 0 00-.97 1.085l.712 6.413C2.42 14.052.973 14.705.906 14.736a.976.976 0 00-.565 1.004l2.93 24.61zM44.747 7.846l-.55 4.945c-2.62-.712-5.02-1.072-7.145-1.072a9.475 9.475 0 00-2.946.463 17.964 17.964 0 0110.64-4.336zm-14.517 4.85a12.813 12.813 0 0111.628-10.7l-.316 4.333a19.922 19.922 0 00-11.461 7.26l.149-.893zm-4.896 9.765a3.88 3.88 0 001.953-.526v24.159a1.955 1.955 0 01-1.953 1.953 1.955 1.955 0 01-1.953-1.953V21.935a3.881 3.881 0 001.953.526zm-4.896-9.765l.149.893a19.926 19.926 0 00-11.462-7.26l-.316-4.334a12.813 12.813 0 0111.629 10.7zm-3.877-.514a9.476 9.476 0 00-2.946-.463c-2.125 0-4.524.36-7.145 1.072l-.55-4.945a17.965 17.965 0 0110.641 4.336zm-2.946 1.49c4.625 0 7.28 4.198 7.812 5.131v24.845c-1.571-1.448-4.15-3.373-7.541-4.352-2.446-.706-6.274-.468-8.794-.162L2.367 16.237c3.333-1.364 7.653-2.565 11.248-2.565z" fill="#3B575E"/><path d="M47.892 28.906a.977.977 0 100-1.953.977.977 0 000 1.953z" fill="#3B575E"/></g><defs><clipPath id="clip0"><path fill="#fff" transform="translate(.333)" d="M0 0h50v50H0z"/></clipPath></defs></svg>