<svg width="50" height="50" fill="none" xmlns="http://www.w3.org/2000/svg"><g clip-path="url(#clip0)"><circle cx="25.5" cy="32.5" r="17.5" fill="#E3E9FB"/><path d="M47.941 12.605L25.914.248a1.965 1.965 0 00-1.912 0L1.974 12.605a1.955 1.955 0 000 3.407l5.698 3.197v10.773c0 .652.323 1.257.863 1.62l1.165.785a3.685 3.685 0 00-.493 1.844v14.792c0 .54.437.977.976.977h5.47a.977.977 0 00.976-.977V37.051l7.238 4.874a1.948 1.948 0 002.182 0L41.38 31.602a1.95 1.95 0 00.863-1.62V19.21l5.698-3.197a1.955 1.955 0 000-3.407zm-38.316 7.7l2.316 1.298v9.048c-.29.08-.566.193-.823.336l-1.493-1.005v-9.677zm5.05 14.907v1.591H11.16v-2.572c0-.969.79-1.758 1.759-1.758.969 0 1.758.79 1.758 1.758v.98zM11.16 48.047v-9.29h3.516v9.29H11.16zm29.13-18.065l-14.355 9.665v-4.049a.977.977 0 00-1.954 0v4.049l-7.352-4.95v-.466c0-1.708-1.16-3.15-2.735-3.58V22.7l10.108 5.67c.295.166.625.248.956.248.33 0 .66-.082.956-.248l14.376-8.064v9.677zm.6-12.254a.97.97 0 00-.189.106l-15.743 8.832-10.007-5.614 7.478-4.207c.68.489 1.559.784 2.518.784 2.153 0 3.906-1.49 3.906-3.32 0-1.831-1.753-3.32-3.907-3.32s-3.906 1.489-3.906 3.32c0 .34.061.67.174.98l-8.258 4.644-3.741-2.099a.967.967 0 00-.19-.106l-6.095-3.42L24.958 1.953 46.986 14.31l-6.096 3.419zm-17.897-3.42c0-.74.895-1.366 1.954-1.366 1.058 0 1.953.626 1.953 1.367s-.895 1.367-1.953 1.367c-1.06 0-1.954-.626-1.954-1.367z" fill="#3B575E"/><path d="M24.958 30.716a.983.983 0 00-.69.285.987.987 0 00-.287.69c0 .259.105.51.286.692a.983.983 0 001.381 0 .988.988 0 00.287-.691.985.985 0 00-.287-.69.983.983 0 00-.69-.286z" fill="#3B575E"/></g><defs><clipPath id="clip0"><path fill="#fff" d="M0 0h50v50H0z"/></clipPath></defs></svg>