<svg width="51" height="50" fill="none" xmlns="http://www.w3.org/2000/svg"><g clip-path="url(#clip0)"><circle cx="25.834" cy="32.5" r="17.5" fill="#E3E9FB"/><path d="M34.123 31.152a.977.977 0 00-.977.977v6.738a4.888 4.888 0 01-4.883 4.883H17.72a.977.977 0 00-.976.976l-.002 1.941-2.33-2.33a.977.977 0 00-.896-.587H7.169a4.888 4.888 0 01-4.882-4.883V23.828a4.888 4.888 0 014.882-4.883h9.864a.977.977 0 100-1.953H7.169a6.844 6.844 0 00-6.836 6.836v15.04a6.844 6.844 0 006.836 6.835h5.846l4.01 4.011a.976.976 0 001.668-.69l.002-3.32h9.568a6.844 6.844 0 006.836-6.837V32.13a.977.977 0 00-.976-.977z" fill="#3B575E"/><path d="M36.14 0h-2.472c-7.826 0-14.194 6.367-14.194 14.194 0 7.826 6.367 14.194 14.194 14.194h2.471c1.222 0 2.431-.155 3.603-.462l3.651 3.649a.977.977 0 001.667-.69v-5.65a14.33 14.33 0 003.731-4.6 14.042 14.042 0 001.543-6.441C50.334 6.367 43.965 0 36.14 0zm7.356 23.978a.977.977 0 00-.39.78v3.77l-2.389-2.389a.977.977 0 00-.977-.242 12.245 12.245 0 01-3.6.538h-2.472c-6.75 0-12.24-5.491-12.24-12.241s5.49-12.24 12.24-12.24h2.472c6.75 0 12.24 5.49 12.24 12.24 0 3.88-1.78 7.446-4.884 9.784z" fill="#3B575E"/><path d="M39.302 10.686a4.144 4.144 0 00-3.834-3.834 4.103 4.103 0 00-3.112 1.102 4.15 4.15 0 00-1.313 3.023.977.977 0 001.953 0c0-.611.246-1.178.693-1.595a2.183 2.183 0 013.664 1.438 2.172 2.172 0 01-1.696 2.285 1.848 1.848 0 00-1.456 1.812v2.346a.977.977 0 001.953 0v-2.268a4.113 4.113 0 003.148-4.31zm-3.434 9.75a.984.984 0 00-.69-.287.984.984 0 00-.691.287.984.984 0 00-.286.69c0 .258.104.51.286.691a.983.983 0 00.69.285.983.983 0 00.69-.285.986.986 0 00.287-.691.984.984 0 00-.286-.69zm-8.679 9.837H6.584a.977.977 0 000 1.954h20.605a.977.977 0 000-1.954zm.691 5.755a.984.984 0 00-.691-.286.984.984 0 00-.69.286.984.984 0 00-.287.69c0 .258.105.51.287.691a.984.984 0 00.69.286.984.984 0 00.69-.286.982.982 0 00.287-.69.984.984 0 00-.287-.69zm-4.532-.286H6.584a.977.977 0 000 1.953h16.764a.977.977 0 000-1.953zm-2.507-10.937H6.583a.977.977 0 000 1.953h14.258a.977.977 0 100-1.953z" fill="#3B575E"/></g><defs><clipPath id="clip0"><path fill="#fff" transform="translate(.333)" d="M0 0h50v50H0z"/></clipPath></defs></svg>