<svg width="44" height="28" fill="none" xmlns="http://www.w3.org/2000/svg"><path d="M39.182 1H4.818C2.71 1 1 2.455 1 4.25v19.5C1 25.545 2.71 27 4.818 27h34.364C41.29 27 43 25.545 43 23.75V4.25C43 2.455 41.29 1 39.182 1z" stroke="#000" stroke-width="1.5" stroke-linecap="round" stroke-linejoin="round"/><path d="M12.933 10.418c-.316.372-.822.665-1.329.623-.063-.502.185-1.036.475-1.366.316-.382.87-.654 1.319-.675.052.523-.153 1.036-.465 1.418zm.46.722c-.734-.042-1.362.414-1.71.414-.353 0-.886-.393-1.466-.382a2.169 2.169 0 00-1.84 1.11c-.791 1.35-.206 3.348.559 4.447.374.544.822 1.141 1.413 1.12.56-.02.78-.36 1.456-.36.68 0 .875.36 1.466.35.612-.01.997-.544 1.371-1.089.427-.617.601-1.22.612-1.25-.01-.01-1.181-.456-1.192-1.795-.01-1.12.923-1.654.965-1.685-.527-.775-1.35-.859-1.635-.88zm4.234-1.517v8.158h1.277v-2.79h1.766c1.614 0 2.748-1.098 2.748-2.689 0-1.59-1.113-2.68-2.705-2.68h-3.086zm1.277 1.067h1.471c1.108 0 1.74.586 1.74 1.617 0 1.031-.632 1.623-1.745 1.623h-1.466v-3.24zm6.845 7.154c.802 0 1.546-.403 1.883-1.041h.026v.978h1.182v-4.06c0-1.178-.95-1.937-2.41-1.937-1.356 0-2.358.77-2.395 1.826h1.15c.095-.502.564-.832 1.208-.832.78 0 1.218.361 1.218 1.026v.45l-1.593.094c-1.482.09-2.283.691-2.283 1.738 0 1.057.828 1.758 2.014 1.758zm.343-.968c-.68 0-1.113-.325-1.113-.822 0-.513.417-.81 1.213-.858l1.42-.089v.46c0 .765-.655 1.309-1.52 1.309zM30.417 20c1.244 0 1.83-.471 2.341-1.9L35 11.862h-1.297l-1.504 4.82h-.026l-1.503-4.82h-1.334l2.162 5.94-.116.361c-.195.613-.512.848-1.076.848-.1 0-.295-.01-.374-.021v.979c.074.02.39.031.485.031z" fill="#000"/></svg>