<svg width="111" height="42" viewBox="0 0 111 42" fill="none" xmlns="http://www.w3.org/2000/svg">
<path d="M0.543457 20.8916H109.455V21.6685H0.543457V20.8916Z" fill="#3B575E"/>
<path d="M43.746 1.13018L55.2044 9.65321L66.6721 0.000121117L67.6875 1.23076C65.9239 2.57775 60.7272 7.27711 60.7272 7.27711L68.1328 1.88948L69.3619 3.18637C68.8262 3.60778 58.5129 11.9067 55.3205 12.2531C53.7428 12.4241 42.4404 3.65476 41.7891 3.19243L43.746 1.13018Z" fill="#E0E0E0"/>
<path d="M45.1042 0.661289L49.2936 3.6741C49.2398 3.58526 47.214 1.6915 45.9372 0.501794L47.76 0.152149C47.76 0.152149 49.2423 1.0091 50.3445 2.19495C52.8351 4.8728 55.0964 9.27188 55.0964 9.27188C55.0964 9.27188 53.3012 7.94746 52.6548 7.4207C52.0085 6.89412 49.7194 5.13471 47.7803 3.6629C45.8418 2.1911 44.1155 0.851067 44.1155 0.851067L45.1042 0.661289Z" fill="#9D2C1D"/>
<path d="M53.3321 12.3696C53.2977 12.3243 53.2638 12.2781 53.2312 12.2292C53.1456 12.1041 53.0991 12.0204 53.0991 12.0204L40.1843 3.64087L40.6886 2.87166L54.2182 11.6494C54.2182 11.6494 54.4967 11.8269 54.9147 11.9222C55.3181 11.9978 55.877 11.9798 56.5385 11.6397C56.5555 11.6289 56.5719 11.6208 56.5883 11.6091L56.5913 11.614L56.5883 11.6087L69.3349 2.70702L69.8144 3.39676L60.0368 10.3239L60.037 10.3241L57.7213 11.9407C57.7213 11.9407 57.0574 13.5287 55.4362 13.5636C54.5377 13.5788 53.872 13.0102 53.485 12.5589C53.4424 12.5104 53.4003 12.4583 53.3588 12.4047C53.3498 12.393 53.3405 12.3812 53.3321 12.3696Z" fill="#37585F"/>
<path d="M9.00852 37.5242H11.2286L5.51214 30.949L10.4768 25.3479H9.25321L4.35826 31.0534H3.3794V25.3479H1.68359V37.5242H3.3794V31.7318H4.28844L9.00852 37.5242ZM22.085 37.5242H24.0604L18.3438 25.3479H17.3823L11.9978 37.5242H12.8895L14.5151 33.8888H20.4241L22.085 37.5242ZM17.4696 27.3483L20.127 33.2104H14.8299L17.4696 27.3483ZM23.5708 26.0264H28.0637V37.5242H29.8118V26.0264H34.3047V25.3479H23.5708V26.0264ZM36.3852 37.5242H45.2135V36.8458H38.1334V31.6449H44.5142V30.9665H38.1334V26.0264H45.0386V25.3479H36.3852V37.5242ZM48.7448 25.3479H46.6471L51.1224 31.4187L46.6471 37.5242H47.5035L51.577 32.0448L55.6151 37.5242H57.7303L52.9054 30.9838L57.0488 25.3479H56.1921L52.4334 30.3575L48.7448 25.3479ZM61.2967 37.5242L68.6917 27.1395V37.5242H70.4398V25.3479H69.0412L61.6464 35.75V25.3479H59.8983V37.5242H61.2967ZM77.8173 25.2262C75.4047 25.2262 73.5343 26.2698 73.1846 28.879H74.9327C75.1075 27.0178 76.104 25.8523 77.8346 25.8523C79.3206 25.8523 80.4919 26.7048 80.4919 28.4094C80.4919 30.0445 79.3905 30.8794 77.485 30.8794H76.3313V31.5578H77.9919C79.8976 31.5578 81.1038 32.5146 81.1038 34.2366C81.1038 36.0109 79.7926 37.0371 77.9919 37.0371C76.1389 37.0371 74.9502 35.9413 74.6706 34.0626H72.9222C73.3769 36.5153 75.1424 37.6634 77.922 37.6634C80.8415 37.6634 82.9043 36.411 82.9043 34.2714C82.9043 32.6537 81.7331 31.4882 79.7751 31.1751C81.3135 30.7925 82.2052 29.7836 82.2052 28.3919C82.2052 26.3394 80.2997 25.2262 77.8173 25.2262ZM87.1 37.5242L94.4948 27.1395V37.5242H96.2429V25.3479H94.8444L87.4497 35.75V25.3479H85.7014V37.5242H87.1ZM108.795 33.8888C108.463 35.976 107.012 37.0371 105.141 37.0371C102.239 37.0371 100.841 34.3583 100.841 31.4187C100.841 28.6529 102.047 25.8523 105.036 25.8523C107.047 25.8523 108.393 27.0874 108.638 29.053H110.386C110.001 26.3742 107.746 25.2262 105.106 25.2262C101.138 25.2262 99.0227 27.8702 99.0227 31.4013C99.0227 34.8454 101.051 37.6634 105.264 37.6634C107.973 37.6634 110.054 36.4805 110.543 33.8888H108.795Z" fill="#9D2C1D"/>
<path d="M0.543457 41.223H109.455V42H0.543457V41.223Z" fill="#3B575E"/>
</svg>
